# xmcd
#
# Track frame offsets:
#	150
#	14167
#	25917
#	38890
#	50298
#	62616
#	75488
#	87990
#	103623
#	116362
#	125528
#	137891
#	149617
#	159281
#
# Disc length: 2389 seconds
#
# Revision: 0
# Processed by: cddbd v1.5.2PL0 Copyright (c) Steve Scherf et al.
# Submitted via: dBpowerAMP V4.0
#
DISCID=b909530e
DTITLE=Chris Sprague - Hammer Down
DYEAR=2005
DGENRE=Country
TTITLE0=Almost Home
TTITLE1=Chick Inspector
TTITLE2=Diesel Smoke,Dangerous curves
TTITLE3=I'm Comming Home
TTITLE4=There Ain't No Easy Run
TTITLE5=Girl On A Billboard
TTITLE6=Diesel Smoke 'n' Cigarettes
TTITLE7=It's Been A Lonely Stretch Of Road
TTITLE8=Nitro Express
TTITLE9=Perterbilt My Home
TTITLE10=Philadelphia Phillies
TTITLE11=The Lovin' Machine
TTITLE12=Gear Bustin' Sort Of Feller
TTITLE13=The White Knight
EXTD=
EXTT0=
EXTT1=
EXTT2=
EXTT3=
EXTT4=
EXTT5=
EXTT6=
EXTT7=
EXTT8=
EXTT9=
EXTT10=
EXTT11=
EXTT12=
EXTT13=
PLAYORDER=
